#!OML:ASF F:\VICON\USERDATA\INSTALL\rory3\rory3.ASF
:FULLY-SPECIFIED
:DEGREES
48
root -0.33983518886428005 17.39587474519366 19.65236807743542 4.271083361541231 1.2145577694520362 0.9174737388559957
lfemur 21.700511461337175 -5.962378532280925 -30.787291486554274
ltibia 38.43603689623851
lfoot -31.933812840954012 9.54027546321132
ltoes -2.2870581049141734
rfemur -53.32546769330851 -11.57673481612013 18.34719026728166
rtibia 165.54824132347557
rfoot -0.34262052475552807 7.110990596635296
rtoes -13.87997505107289
lowerback nan 0.5785897945712835 -4.705310080658309
upperback 0.6233651743181963 -0.6288717558288599 0.3586566229342951
thorax -9.844165016333749 -0.8880528993488161 6.128077931507304
lowerneck -24.307052823855592 -3.5422364063892657 -0.7771655922849969
upperneck 10.267543679988664 -5.147114496886743 4.310401913210163
head 7.185202650111088 -2.0363096407745735 1.0547189914810153
lclavicle -6.428513514577637e-15 -6.494709780643952e-15
lhumerus -24.085144502739336 -25.25852570437325 97.03004726010528
lradius 118.92439924410928
lwrist 39.1082949573118
lhand -20.79549359208992 2.1602361853143943
lfingers nan
lthumb 5.660633598358472 32.35176185178772
rclavicle -6.996014827227516e-15 -5.929449396732851e-15
rhumerus -65.98582447593142 4.746891269323732 -99.54133589563389
rradius 96.75635409248261
rwrist -12.405741096469825
rhand -14.587353721329183 nan
rfingers nan
rthumb 11.20494549696182 9.655086325766124
49
root -0.33636159895574713 17.459275785169858 20.24758162323546 4.491345650728396 0.9319571875126702 0.700508366487322
lfemur 22.435115668628338 -5.864958325541082 -30.453369761016546
ltibia 37.255290395966476
lfoot -30.22025082663869 8.913476977638982
ltoes -3.6097461542235605
rfemur -54.189488730863616 -10.945601843152938 19.002810742602428
rtibia 162.73566002471233
rfoot -0.7597907951022007 8.726592863040036
rtoes -11.803740166076956
lowerback nan 0.4714423943525167 -4.800260685731548
upperback 0.4024032533503876 -0.7972736151476674 0.7752472014765406
thorax -10.077113658144757 -0.9673552011451674 6.538605483954645
lowerneck -23.88002974686823 -3.38366149562546 -0.8612376171102352
upperneck 10.035310749106637 -4.800221706722487 4.19523262012293
head 7.056472674819412 -1.915026053705471 1.0293811699153657
lclavicle -7.873080218759245e-15 -8.983341426359249e-15
lhumerus -24.26085591274454 -24.32095243134158 97.03535191150578
lradius 120.20694706879272
lwrist 39.99525987473187
lhand -21.022662795402542 2.5222214814461257
lfingers nan
lthumb 5.467119878686083 32.71973558297652
rclavicle -8.474569866327433e-15 -8.404633010149773e-15
rhumerus -66.78503230912955 5.161125523637786 -99.16409887120518
rradius 97.66683800737117
rwrist -15.62651638008008
rhand -14.222833308194483 nan
rfingers nan
rthumb 11.53744441482795 9.540183005101554
50
root -0.3304727628997954 17.525470671305516 20.552456042474073 4.4372788621104915 0.6022024451627366 0.7092186286472102
lfemur 23.287082794516774 -5.529057384191313 -30.261183884066025
ltibia 36.073795374178744
lfoot -28.286287248389588 7.7121509659787035
ltoes -5.062467869649994
rfemur -54.51980276374337 -10.185441830158968 19.414049286940845
rtibia 159.61893687006904
rfoot -2.1912075006273826 9.730810269991256
rtoes -15.532492895868415
lowerback nan 0.3700887445902776 -4.968224629061041
upperback 0.12464887278012893 -1.0439493460703517 1.0638766367161907
thorax -10.56216382990763 -1.00399802470368 6.815334733418398
lowerneck -23.214766625882806 -3.141976496282902 -1.0441183089779948
upperneck 9.989286091905152 -4.39990205613798 4.198849058616962
head 6.952550860085588 -1.7451442080097688 1.0781717323631508
lclavicle -1.2090326614811023e-14 9.243895514497164e-15
lhumerus -24.62348537979059 -23.363919556866563 97.04593765179513
lradius 121.6908080833906
lwrist 41.16635382080912
lhand -22.025420695500408 3.48401157141386
lfingers nan
lthumb 4.49786421351306 33.67612807036059
rclavicle -1.2650067592903728e-14 9.829212009835425e-15
rhumerus -67.57009008250637 5.575911815216132 -98.92590705530726
rradius 98.40055539806953
rwrist -17.657163377986002
rhand -14.317398558204772 nan
rfingers nan
rthumb 11.444400914689197 9.336885300218599
51
root -0.31206614751784245 17.597769491778138 21.061351896319138 4.607183446072746 0.6375177544039081 0.6243788026762762
lfemur 23.93485881502804 -5.369869344222326 -29.86249567277325
ltibia 34.81786243690891
lfoot -26.21723592706651 6.315821263911292
ltoes -7.724046674458749
rfemur -54.86633317252658 -9.670631344429882 19.971307693549043
rtibia 156.10239074577692
rfoot -5.0078309679552495 10.130573157827037
rtoes -27.02749741697333
lowerback nan 0.1259673963874508 -4.820878113262811
upperback -0.1310770107270962 -1.4423587169949055 1.3226967756465644
thorax -10.656489463401067 -1.0543232736209185 6.849237383403317
lowerneck -22.917818034955307 -2.9023777884853352 -1.1029010355789186
upperneck 10.299843107249764 -4.086381879243954 4.209982249246458
head 6.978660041675063 -1.5873836775156267 1.117665588267983
lclavicle -1.9515551500030953e-14 5.597929771761346e-15
lhumerus -24.972392768215425 -22.635945943734278 97.02418281238629
lradius 123.09418523484746
lwrist 42.338364624332186
lhand -22.428947109623476 3.7881770800995342
lfingers nan
lthumb 4.095797427201383 33.95496691893921
rclavicle -2.017015659660825e-14 6.160788114292394e-15
rhumerus -68.29322465241896 5.690272504534903 -98.55280748386099
rradius 99.14982839657819
rwrist -17.878710063081137
rhand -14.64384379858119 nan
rfingers nan
rthumb 11.060101701893243 9.552764688549336
